<svg xmlns="http://www.w3.org/2000/svg" style="background: transparent; background-color: transparent;" xmlns:xlink="http://www.w3.org/1999/xlink" version="1.1" width="292px" height="263px" viewBox="-0.5 -0.5 292 263"><defs/><g><g data-cell-id="0"><g data-cell-id="1"><g data-cell-id="IFfKdR9KGk2LeJjd5jW3-6"><g style="filter: drop-shadow(light-dark(rgba(0, 0, 0, 0.25), rgba(237, 237, 237, 0.25)) 2px 3px 2px);"><path d="M 44 14 L 264 14" fill="none" stroke="none" pointer-events="stroke"/><path d="M 44 14 C 113.45 16.38 186.64 13.65 264 14 M 44 14 C 100.04 12.82 160.25 12.39 264 14" fill="none" stroke="#000000" stroke-linejoin="round" stroke-linecap="round" stroke-miterlimit="10" pointer-events="stroke" style="stroke: light-dark(rgb(0, 0, 0), rgb(255, 255, 255));"/></g></g><g data-cell-id="IFfKdR9KGk2LeJjd5jW3-7"><g style="filter: drop-shadow(light-dark(rgba(0, 0, 0, 0.25), rgba(237, 237, 237, 0.25)) 2px 3px 2px);"><path d="M 54 254 L 54 4" fill="none" stroke="none" pointer-events="stroke"/><path d="M 54 254 C 57.9 172.08 57.29 88.24 54 4 M 54 254 C 51.69 171.49 50.47 86.69 54 4" fill="none" stroke="#000000" stroke-linejoin="round" stroke-linecap="round" stroke-miterlimit="10" pointer-events="stroke" style="stroke: light-dark(rgb(0, 0, 0), rgb(255, 255, 255));"/></g></g><g data-cell-id="IFfKdR9KGk2LeJjd5jW3-8"><g style="filter: drop-shadow(light-dark(rgba(0, 0, 0, 0.25), rgba(237, 237, 237, 0.25)) 2px 3px 2px);"><path d="M 4 254 L 284 254" fill="none" stroke="none" pointer-events="stroke"/><path d="M 4 254 C 95.93 251.42 184.93 255.75 284 254 M 4 254 C 60.73 256.66 119.26 256.95 284 254" fill="none" stroke="#000000" stroke-linejoin="round" stroke-linecap="round" stroke-miterlimit="10" pointer-events="stroke" style="stroke: light-dark(rgb(0, 0, 0), rgb(255, 255, 255));"/></g></g><g data-cell-id="IFfKdR9KGk2LeJjd5jW3-11"><g style="filter: drop-shadow(light-dark(rgba(0, 0, 0, 0.25), rgba(237, 237, 237, 0.25)) 2px 3px 2px);"><path d="M 14 254 L 54 214" fill="none" stroke="none" pointer-events="stroke"/><path d="M 14 254 C 25.3 239.84 41.2 231.32 54 214 M 14 254 C 24.06 245.15 31.67 233.72 54 214" fill="none" stroke="#000000" stroke-linejoin="round" stroke-linecap="round" stroke-miterlimit="10" pointer-events="stroke" style="stroke: light-dark(rgb(0, 0, 0), rgb(255, 255, 255));"/></g></g><g data-cell-id="IFfKdR9KGk2LeJjd5jW3-12"><g style="filter: drop-shadow(light-dark(rgba(0, 0, 0, 0.25), rgba(237, 237, 237, 0.25)) 2px 3px 2px);"><path d="M 54 214 L 94 254" fill="none" stroke="none" pointer-events="stroke"/><path d="M 54 214 C 62.71 223.7 76.26 240.86 94 254 M 54 214 C 66.7 227.52 80.34 236.94 94 254" fill="none" stroke="#000000" stroke-linejoin="round" stroke-linecap="round" stroke-miterlimit="10" pointer-events="stroke" style="stroke: light-dark(rgb(0, 0, 0), rgb(255, 255, 255));"/></g></g><g data-cell-id="IFfKdR9KGk2LeJjd5jW3-13"><g style="filter: drop-shadow(light-dark(rgba(0, 0, 0, 0.25), rgba(237, 237, 237, 0.25)) 2px 3px 2px);"><path d="M 54 64 L 104 14" fill="none" stroke="none" pointer-events="stroke"/><path d="M 54 64 C 71.6 51.96 85.96 33.07 104 14 M 54 64 C 76.06 47.16 95.61 26.96 104 14" fill="none" stroke="#000000" stroke-linejoin="round" stroke-linecap="round" stroke-miterlimit="10" pointer-events="stroke" style="stroke: light-dark(rgb(0, 0, 0), rgb(255, 255, 255));"/></g></g></g></g></g></svg>