<svg xmlns="http://www.w3.org/2000/svg" style="background: transparent; background-color: transparent;" xmlns:xlink="http://www.w3.org/1999/xlink" version="1.1" width="292px" height="263px" viewBox="-0.5 -0.5 292 263"><defs/><g><g data-cell-id="0"><g data-cell-id="1"><g data-cell-id="IFfKdR9KGk2LeJjd5jW3-6"><g style="filter: drop-shadow(light-dark(rgba(0, 0, 0, 0.25), rgba(237, 237, 237, 0.25)) 2px 3px 2px);"><path d="M 44 14 L 264 14" fill="none" stroke="none" pointer-events="stroke"/><path d="M 44 14 C 113.45 16.38 186.64 13.65 264 14 M 44 14 C 100.04 12.82 160.25 12.39 264 14" fill="none" stroke="#000000" stroke-linejoin="round" stroke-linecap="round" stroke-miterlimit="10" pointer-events="stroke" style="stroke: light-dark(rgb(0, 0, 0), rgb(255, 255, 255));"/></g></g><g data-cell-id="IFfKdR9KGk2LeJjd5jW3-7"><g style="filter: drop-shadow(light-dark(rgba(0, 0, 0, 0.25), rgba(237, 237, 237, 0.25)) 2px 3px 2px);"><path d="M 54 254 L 54 4" fill="none" stroke="none" pointer-events="stroke"/><path d="M 54 254 C 57.9 172.08 57.29 88.24 54 4 M 54 254 C 51.69 171.49 50.47 86.69 54 4" fill="none" stroke="#000000" stroke-linejoin="round" stroke-linecap="round" stroke-miterlimit="10" pointer-events="stroke" style="stroke: light-dark(rgb(0, 0, 0), rgb(255, 255, 255));"/></g></g><g data-cell-id="IFfKdR9KGk2LeJjd5jW3-8"><g style="filter: drop-shadow(light-dark(rgba(0, 0, 0, 0.25), rgba(237, 237, 237, 0.25)) 2px 3px 2px);"><path d="M 4 254 L 284 254" fill="none" stroke="none" pointer-events="stroke"/><path d="M 4 254 C 95.93 251.42 184.93 255.75 284 254 M 4 254 C 60.73 256.66 119.26 256.95 284 254" fill="none" stroke="#000000" stroke-linejoin="round" stroke-linecap="round" stroke-miterlimit="10" pointer-events="stroke" style="stroke: light-dark(rgb(0, 0, 0), rgb(255, 255, 255));"/></g></g><g data-cell-id="IFfKdR9KGk2LeJjd5jW3-11"><g style="filter: drop-shadow(light-dark(rgba(0, 0, 0, 0.25), rgba(237, 237, 237, 0.25)) 2px 3px 2px);"><path d="M 14 254 L 54 214" fill="none" stroke="none" pointer-events="stroke"/><path d="M 14 254 C 25.3 239.84 41.2 231.32 54 214 M 14 254 C 24.06 245.15 31.67 233.72 54 214" fill="none" stroke="#000000" stroke-linejoin="round" stroke-linecap="round" stroke-miterlimit="10" pointer-events="stroke" style="stroke: light-dark(rgb(0, 0, 0), rgb(255, 255, 255));"/></g></g><g data-cell-id="IFfKdR9KGk2LeJjd5jW3-12"><g style="filter: drop-shadow(light-dark(rgba(0, 0, 0, 0.25), rgba(237, 237, 237, 0.25)) 2px 3px 2px);"><path d="M 54 214 L 94 254" fill="none" stroke="none" pointer-events="stroke"/><path d="M 54 214 C 62.71 223.7 76.26 240.86 94 254 M 54 214 C 66.7 227.52 80.34 236.94 94 254" fill="none" stroke="#000000" stroke-linejoin="round" stroke-linecap="round" stroke-miterlimit="10" pointer-events="stroke" style="stroke: light-dark(rgb(0, 0, 0), rgb(255, 255, 255));"/></g></g><g data-cell-id="IFfKdR9KGk2LeJjd5jW3-13"><g style="filter: drop-shadow(light-dark(rgba(0, 0, 0, 0.25), rgba(237, 237, 237, 0.25)) 2px 3px 2px);"><path d="M 54 64 L 104 14" fill="none" stroke="none" pointer-events="stroke"/><path d="M 54 64 C 71.6 51.96 85.96 33.07 104 14 M 54 64 C 76.06 47.16 95.61 26.96 104 14" fill="none" stroke="#000000" stroke-linejoin="round" stroke-linecap="round" stroke-miterlimit="10" pointer-events="stroke" style="stroke: light-dark(rgb(0, 0, 0), rgb(255, 255, 255));"/></g></g><g data-cell-id="IFfKdR9KGk2LeJjd5jW3-14"><g style="filter: drop-shadow(light-dark(rgba(0, 0, 0, 0.25), rgba(237, 237, 237, 0.25)) 2px 3px 2px);"><path d="M 174 44 L 174 14" fill="none" stroke="none" pointer-events="stroke"/><path d="M 174 44 C 173.44 35.46 177.63 23.29 174 14 M 174 44 C 174.58 34.37 173.87 28.21 174 14" fill="none" stroke="#000000" stroke-linejoin="round" stroke-linecap="round" stroke-miterlimit="10" pointer-events="stroke" style="stroke: light-dark(rgb(0, 0, 0), rgb(255, 255, 255));"/></g></g><g data-cell-id="IFfKdR9KGk2LeJjd5jW3-15"><g style="filter: drop-shadow(light-dark(rgba(0, 0, 0, 0.25), rgba(237, 237, 237, 0.25)) 2px 3px 2px);"><ellipse cx="174" cy="64" rx="20" ry="20" fill="none" stroke="none" pointer-events="all"/><path d="M 182.2 46.38 C 185.93 48.09 189.66 53.3 191.54 57.02 C 193.42 60.74 194.3 65.1 193.48 68.7 C 192.66 72.31 189.93 76.37 186.63 78.64 C 183.32 80.91 177.81 82.43 173.63 82.31 C 169.45 82.19 164.99 80.76 161.54 77.92 C 158.08 75.08 153.64 69.17 152.88 65.25 C 152.11 61.33 154.01 57.75 156.95 54.39 C 159.89 51.03 166.35 46.4 170.52 45.09 C 174.68 43.77 179.49 46.3 181.94 46.5 C 184.4 46.7 185.44 45.79 185.26 46.29 M 182.57 46.32 C 187.08 47.95 193.69 52.39 195.62 56.75 C 197.54 61.11 196.27 68.76 194.13 72.48 C 192 76.2 186.96 77.58 182.8 79.06 C 178.65 80.54 173.2 81.4 169.18 81.35 C 165.16 81.3 161.1 81.87 158.68 78.77 C 156.26 75.67 154.64 67.84 154.67 62.74 C 154.69 57.64 155.73 51.37 158.84 48.17 C 161.95 44.96 168.68 44.03 173.32 43.54 C 177.97 43.04 185.11 44.69 186.72 45.19 C 188.33 45.68 183.8 46.27 183.01 46.49" fill="#000000" stroke="none" pointer-events="all" style="fill: light-dark(rgb(0, 0, 0), rgb(237, 237, 237));"/><path d="M 169.08 43.45 C 173.12 42.1 179.26 42.08 182.84 44.19 C 186.42 46.3 189.01 51.96 190.55 56.12 C 192.1 60.27 192.68 65.08 192.1 69.12 C 191.53 73.17 190.25 78.02 187.12 80.37 C 183.99 82.73 178.03 83.34 173.3 83.26 C 168.57 83.18 162.11 82.45 158.73 79.91 C 155.36 77.36 153.06 72.38 153.04 67.99 C 153.01 63.59 155.59 57.27 158.6 53.52 C 161.6 49.77 167.98 46.86 171.05 45.47 C 174.12 44.09 177.01 45.37 177.01 45.21 M 162.37 48.36 C 165.1 45.32 167.57 44.23 172.19 44.41 C 176.8 44.59 186.3 46.7 190.06 49.44 C 193.82 52.17 194.63 56.99 194.74 60.82 C 194.84 64.65 192.73 69.18 190.7 72.42 C 188.67 75.65 186.77 78.58 182.55 80.24 C 178.33 81.9 169.9 83.78 165.37 82.37 C 160.83 80.96 157.27 75.97 155.34 71.77 C 153.4 67.56 153.01 61.45 153.75 57.16 C 154.5 52.87 158.7 47.38 159.81 46.04 C 160.92 44.7 160 48.94 160.41 49.1" fill="none" stroke="#000000" stroke-linejoin="round" stroke-linecap="round" stroke-miterlimit="10" pointer-events="all" style="stroke: light-dark(rgb(0, 0, 0), rgb(237, 237, 237));"/></g></g><g data-cell-id="IFfKdR9KGk2LeJjd5jW3-16"><g style="filter: drop-shadow(light-dark(rgba(0, 0, 0, 0.25), rgba(237, 237, 237, 0.25)) 2px 3px 2px);"><path d="M 174 164 L 174 84" fill="none" stroke="none" pointer-events="stroke"/><path d="M 174 164 C 176.09 135.51 175.57 116.33 174 84 M 174 164 C 175.74 146.69 173.34 132.87 174 84" fill="none" stroke="#000000" stroke-linejoin="round" stroke-linecap="round" stroke-miterlimit="10" pointer-events="stroke" style="stroke: light-dark(rgb(0, 0, 0), rgb(255, 255, 255));"/></g></g><g data-cell-id="IFfKdR9KGk2LeJjd5jW3-17"><g style="filter: drop-shadow(light-dark(rgba(0, 0, 0, 0.25), rgba(237, 237, 237, 0.25)) 2px 3px 2px);"><path d="M 144 114 L 174 84" fill="none" stroke="none" pointer-events="stroke"/><path d="M 144 114 C 153.76 107.21 160.38 96.23 174 84 M 144 114 C 151.8 105.42 160.84 98.09 174 84" fill="none" stroke="#000000" stroke-linejoin="round" stroke-linecap="round" stroke-miterlimit="10" pointer-events="stroke" style="stroke: light-dark(rgb(0, 0, 0), rgb(255, 255, 255));"/></g></g><g data-cell-id="IFfKdR9KGk2LeJjd5jW3-18"><g style="filter: drop-shadow(light-dark(rgba(0, 0, 0, 0.25), rgba(237, 237, 237, 0.25)) 2px 3px 2px);"><path d="M 204 114 L 174 84" fill="none" stroke="none" pointer-events="stroke"/><path d="M 204 114 C 192.4 104.73 185.7 94.15 174 84 M 204 114 C 195.38 103.55 184.83 92.49 174 84" fill="none" stroke="#000000" stroke-linejoin="round" stroke-linecap="round" stroke-miterlimit="10" pointer-events="stroke" style="stroke: light-dark(rgb(0, 0, 0), rgb(255, 255, 255));"/></g></g><g data-cell-id="IFfKdR9KGk2LeJjd5jW3-21"><g style="filter: drop-shadow(light-dark(rgba(0, 0, 0, 0.25), rgba(237, 237, 237, 0.25)) 2px 3px 2px);"><path d="M 144 204 L 174 164" fill="none" stroke="none" pointer-events="stroke"/><path d="M 144 204 C 152.27 190.2 164.05 178.02 174 164 M 144 204 C 150.58 190.69 158.39 181.51 174 164" fill="none" stroke="#000000" stroke-linejoin="round" stroke-linecap="round" stroke-miterlimit="10" pointer-events="stroke" style="stroke: light-dark(rgb(0, 0, 0), rgb(255, 255, 255));"/></g></g></g></g></g></svg>