<svg xmlns="http://www.w3.org/2000/svg" style="background: transparent; background-color: transparent;" xmlns:xlink="http://www.w3.org/1999/xlink" version="1.1" width="292px" height="263px" viewBox="-0.5 -0.5 292 263"><defs/><g><g data-cell-id="0"><g data-cell-id="1"><g data-cell-id="IFfKdR9KGk2LeJjd5jW3-6"><g style="filter: drop-shadow(light-dark(rgba(0, 0, 0, 0.25), rgba(237, 237, 237, 0.25)) 2px 3px 2px);"><path d="M 44 14 L 264 14" fill="none" stroke="none" pointer-events="stroke"/><path d="M 44 14 C 113.45 16.38 186.64 13.65 264 14 M 44 14 C 100.04 12.82 160.25 12.39 264 14" fill="none" stroke="#000000" stroke-linejoin="round" stroke-linecap="round" stroke-miterlimit="10" pointer-events="stroke" style="stroke: light-dark(rgb(0, 0, 0), rgb(255, 255, 255));"/></g></g><g data-cell-id="IFfKdR9KGk2LeJjd5jW3-7"><g style="filter: drop-shadow(light-dark(rgba(0, 0, 0, 0.25), rgba(237, 237, 237, 0.25)) 2px 3px 2px);"><path d="M 54 254 L 54 4" fill="none" stroke="none" pointer-events="stroke"/><path d="M 54 254 C 57.9 172.08 57.29 88.24 54 4 M 54 254 C 51.69 171.49 50.47 86.69 54 4" fill="none" stroke="#000000" stroke-linejoin="round" stroke-linecap="round" stroke-miterlimit="10" pointer-events="stroke" style="stroke: light-dark(rgb(0, 0, 0), rgb(255, 255, 255));"/></g></g><g data-cell-id="IFfKdR9KGk2LeJjd5jW3-8"><g style="filter: drop-shadow(light-dark(rgba(0, 0, 0, 0.25), rgba(237, 237, 237, 0.25)) 2px 3px 2px);"><path d="M 4 254 L 284 254" fill="none" stroke="none" pointer-events="stroke"/><path d="M 4 254 C 95.93 251.42 184.93 255.75 284 254 M 4 254 C 60.73 256.66 119.26 256.95 284 254" fill="none" stroke="#000000" stroke-linejoin="round" stroke-linecap="round" stroke-miterlimit="10" pointer-events="stroke" style="stroke: light-dark(rgb(0, 0, 0), rgb(255, 255, 255));"/></g></g><g data-cell-id="IFfKdR9KGk2LeJjd5jW3-11"><g style="filter: drop-shadow(light-dark(rgba(0, 0, 0, 0.25), rgba(237, 237, 237, 0.25)) 2px 3px 2px);"><path d="M 14 254 L 54 214" fill="none" stroke="none" pointer-events="stroke"/><path d="M 14 254 C 25.3 239.84 41.2 231.32 54 214 M 14 254 C 24.06 245.15 31.67 233.72 54 214" fill="none" stroke="#000000" stroke-linejoin="round" stroke-linecap="round" stroke-miterlimit="10" pointer-events="stroke" style="stroke: light-dark(rgb(0, 0, 0), rgb(255, 255, 255));"/></g></g><g data-cell-id="IFfKdR9KGk2LeJjd5jW3-12"><g style="filter: drop-shadow(light-dark(rgba(0, 0, 0, 0.25), rgba(237, 237, 237, 0.25)) 2px 3px 2px);"><path d="M 54 214 L 94 254" fill="none" stroke="none" pointer-events="stroke"/><path d="M 54 214 C 62.71 223.7 76.26 240.86 94 254 M 54 214 C 66.7 227.52 80.34 236.94 94 254" fill="none" stroke="#000000" stroke-linejoin="round" stroke-linecap="round" stroke-miterlimit="10" pointer-events="stroke" style="stroke: light-dark(rgb(0, 0, 0), rgb(255, 255, 255));"/></g></g><g data-cell-id="IFfKdR9KGk2LeJjd5jW3-13"><g style="filter: drop-shadow(light-dark(rgba(0, 0, 0, 0.25), rgba(237, 237, 237, 0.25)) 2px 3px 2px);"><path d="M 54 64 L 104 14" fill="none" stroke="none" pointer-events="stroke"/><path d="M 54 64 C 71.6 51.96 85.96 33.07 104 14 M 54 64 C 76.06 47.16 95.61 26.96 104 14" fill="none" stroke="#000000" stroke-linejoin="round" stroke-linecap="round" stroke-miterlimit="10" pointer-events="stroke" style="stroke: light-dark(rgb(0, 0, 0), rgb(255, 255, 255));"/></g></g><g data-cell-id="IFfKdR9KGk2LeJjd5jW3-15"><g style="filter: drop-shadow(light-dark(rgba(0, 0, 0, 0.25), rgba(237, 237, 237, 0.25)) 2px 3px 2px);"><ellipse cx="174" cy="114" rx="20" ry="20" fill="none" stroke="none" pointer-events="all"/><path d="M 182.2 96.38 C 185.93 98.09 189.66 103.3 191.54 107.02 C 193.42 110.74 194.3 115.1 193.48 118.7 C 192.66 122.31 189.93 126.37 186.63 128.64 C 183.32 130.91 177.81 132.43 173.63 132.31 C 169.45 132.19 164.99 130.76 161.54 127.92 C 158.08 125.08 153.64 119.17 152.88 115.25 C 152.11 111.33 154.01 107.75 156.95 104.39 C 159.89 101.03 166.35 96.4 170.52 95.09 C 174.68 93.77 179.49 96.3 181.94 96.5 C 184.4 96.7 185.44 95.79 185.26 96.29 M 182.57 96.32 C 187.08 97.95 193.69 102.39 195.62 106.75 C 197.54 111.11 196.27 118.76 194.13 122.48 C 192 126.2 186.96 127.58 182.8 129.06 C 178.65 130.54 173.2 131.4 169.18 131.35 C 165.16 131.3 161.1 131.87 158.68 128.77 C 156.26 125.67 154.64 117.84 154.67 112.74 C 154.69 107.64 155.73 101.37 158.84 98.17 C 161.95 94.96 168.68 94.03 173.32 93.54 C 177.97 93.04 185.11 94.69 186.72 95.19 C 188.33 95.68 183.8 96.27 183.01 96.49" fill="#000000" stroke="none" pointer-events="all" style="fill: light-dark(rgb(0, 0, 0), rgb(237, 237, 237));"/><path d="M 169.08 93.45 C 173.12 92.1 179.26 92.08 182.84 94.19 C 186.42 96.3 189.01 101.96 190.55 106.12 C 192.1 110.27 192.68 115.08 192.1 119.12 C 191.53 123.17 190.25 128.02 187.12 130.37 C 183.99 132.73 178.03 133.34 173.3 133.26 C 168.57 133.18 162.11 132.45 158.73 129.91 C 155.36 127.36 153.06 122.38 153.04 117.99 C 153.01 113.59 155.59 107.27 158.6 103.52 C 161.6 99.77 167.98 96.86 171.05 95.47 C 174.12 94.09 177.01 95.37 177.01 95.21 M 162.37 98.36 C 165.1 95.32 167.57 94.23 172.19 94.41 C 176.8 94.59 186.3 96.7 190.06 99.44 C 193.82 102.17 194.63 106.99 194.74 110.82 C 194.84 114.65 192.73 119.18 190.7 122.42 C 188.67 125.65 186.77 128.58 182.55 130.24 C 178.33 131.9 169.9 133.78 165.37 132.37 C 160.83 130.96 157.27 125.97 155.34 121.77 C 153.4 117.56 153.01 111.45 153.75 107.16 C 154.5 102.87 158.7 97.38 159.81 96.04 C 160.92 94.7 160 98.94 160.41 99.1" fill="none" stroke="#000000" stroke-linejoin="round" stroke-linecap="round" stroke-miterlimit="10" pointer-events="all" style="stroke: light-dark(rgb(0, 0, 0), rgb(237, 237, 237));"/></g></g><g data-cell-id="IFfKdR9KGk2LeJjd5jW3-16"><g style="filter: drop-shadow(light-dark(rgba(0, 0, 0, 0.25), rgba(237, 237, 237, 0.25)) 2px 3px 2px);"><path d="M 174 214 L 174 134" fill="none" stroke="none" pointer-events="stroke"/><path d="M 174 214 C 176.09 185.51 175.57 166.33 174 134 M 174 214 C 175.74 196.69 173.34 182.87 174 134" fill="none" stroke="#000000" stroke-linejoin="round" stroke-linecap="round" stroke-miterlimit="10" pointer-events="stroke" style="stroke: light-dark(rgb(0, 0, 0), rgb(255, 255, 255));"/></g></g><g data-cell-id="IFfKdR9KGk2LeJjd5jW3-17"><g style="filter: drop-shadow(light-dark(rgba(0, 0, 0, 0.25), rgba(237, 237, 237, 0.25)) 2px 3px 2px);"><path d="M 134 94 L 154 144 L 174 134" fill="none" stroke="none" pointer-events="stroke"/><path d="M 134 94 C 141.79 112.51 145.25 126.83 154 144 M 134 94 C 138.39 107.43 144.67 122.2 154 144 M 154 144 C 161.69 139.03 168.78 134.18 174 134 M 154 144 C 163.65 142.06 171.91 135.37 174 134" fill="none" stroke="#000000" stroke-linejoin="round" stroke-linecap="round" stroke-miterlimit="10" pointer-events="stroke" style="stroke: light-dark(rgb(0, 0, 0), rgb(255, 255, 255));"/></g></g><g data-cell-id="IFfKdR9KGk2LeJjd5jW3-18"><g style="filter: drop-shadow(light-dark(rgba(0, 0, 0, 0.25), rgba(237, 237, 237, 0.25)) 2px 3px 2px);"><path d="M 214 94 L 194 144 L 174 134" fill="none" stroke="none" pointer-events="stroke"/><path d="M 214 94 C 207.03 110.17 203.49 124.89 194 144 M 214 94 C 208.43 111.37 201.37 128.17 194 144 M 194 144 C 188.5 145.6 181.12 139.72 174 134 M 194 144 C 186.7 141.81 177.38 134.92 174 134" fill="none" stroke="#000000" stroke-linejoin="round" stroke-linecap="round" stroke-miterlimit="10" pointer-events="stroke" style="stroke: light-dark(rgb(0, 0, 0), rgb(255, 255, 255));"/></g></g><g data-cell-id="IFfKdR9KGk2LeJjd5jW3-21"><g style="filter: drop-shadow(light-dark(rgba(0, 0, 0, 0.25), rgba(237, 237, 237, 0.25)) 2px 3px 2px);"><path d="M 144 254 L 174 214" fill="none" stroke="none" pointer-events="stroke"/><path d="M 144 254 C 152.27 240.2 164.05 228.02 174 214 M 144 254 C 150.58 240.69 158.39 231.51 174 214" fill="none" stroke="#000000" stroke-linejoin="round" stroke-linecap="round" stroke-miterlimit="10" pointer-events="stroke" style="stroke: light-dark(rgb(0, 0, 0), rgb(255, 255, 255));"/></g></g><g data-cell-id="IFfKdR9KGk2LeJjd5jW3-22"><g style="filter: drop-shadow(light-dark(rgba(0, 0, 0, 0.25), rgba(237, 237, 237, 0.25)) 2px 3px 2px);"><path d="M 204 254 L 174 214" fill="none" stroke="none" pointer-events="stroke"/><path d="M 204 254 C 192.48 237.8 182.92 226.02 174 214 M 204 254 C 195.74 238.2 183.98 224.58 174 214" fill="none" stroke="#000000" stroke-linejoin="round" stroke-linecap="round" stroke-miterlimit="10" pointer-events="stroke" style="stroke: light-dark(rgb(0, 0, 0), rgb(255, 255, 255));"/></g></g></g></g></g></svg>